<?xml version="1.0" encoding="UTF-8"?>
<svg version="1.1" xmlns="http://www.w3.org/2000/svg" width="2048" height="2048">
<path d="M0 0 C675.84 0 1351.68 0 2048 0 C2048 675.84 2048 1351.68 2048 2048 C1372.16 2048 696.32 2048 0 2048 C0 1372.16 0 696.32 0 0 Z " fill="#FEFEFE" transform="translate(0,0)"/>
<path d="M0 0 C1.24652344 0.18820312 2.49304687 0.37640625 3.77734375 0.5703125 C6.85332591 1.03646988 9.92727462 1.5129238 13 2 C9.69416706 4.71125867 6.33133721 7.16701462 2.75 9.5 C-25.63740888 28.29706804 -50.90224585 49.86527801 -75 73.875 C-75.88437744 74.75470459 -76.76875488 75.63440918 -77.67993164 76.54077148 C-82.66058923 81.5337305 -87.42621804 86.63331528 -92 92 C-92.98474447 93.12971986 -93.97038973 94.2586553 -94.95703125 95.38671875 C-101.60120498 103.04487657 -107.95453999 110.85927575 -114 119 C-114.49612793 119.66483398 -114.99225586 120.32966797 -115.50341797 121.01464844 C-141.94164119 156.57483171 -162.94815073 196.20612349 -179.49484253 237.25552368 C-180.23420779 239.08590463 -180.98526792 240.91154769 -181.73657227 242.73706055 C-182.17928467 243.85765869 -182.62199707 244.97825684 -183.078125 246.1328125 C-183.67222168 247.61612061 -183.67222168 247.61612061 -184.27832031 249.12939453 C-186.08670036 256.32253817 -182.09107046 262.35669294 -178.92041016 268.59741211 C-178.12739502 270.1819091 -178.12739502 270.1819091 -177.31835938 271.79841614 C-175.86887633 274.6908555 -174.41237325 277.57962714 -172.95282412 280.46699595 C-171.41445707 283.51481427 -169.88560463 286.56739747 -168.35580444 289.61952209 C-165.4462694 295.42099327 -162.52896153 301.21851679 -159.6085161 307.01450211 C-154.4158221 317.32078697 -149.23752599 327.63431006 -144.0601486 337.94829565 C-141.9632948 342.12466661 -139.86173722 346.29864799 -137.75869751 350.47190857 C-131.08421277 363.73364454 -124.56714644 377.05868317 -118.20492554 390.47293282 C-115.09542235 396.99443413 -111.90997004 403.47955415 -108.73748779 409.97058105 C-103.08059429 421.54648167 -97.43566593 433.12751325 -91.875 444.75 C-80.23176294 469.07557772 -68.37458877 493.29799353 -56.52017212 517.52114868 C-50.09080158 530.65914959 -43.69200905 543.81137978 -37.32507324 556.97973633 C-32.9033188 566.12132851 -28.40888129 575.22322191 -23.84423828 584.29443359 C-20.88763187 590.18455653 -18.01513303 596.10950179 -15.1875 602.0625 C-9.70108741 613.59963605 -4.10813253 625.0841425 1.5 636.5625 C1.97342834 637.53150238 2.44685669 638.50050476 2.93463135 639.49887085 C10.33144196 654.62853982 17.8105064 669.71547175 25.39453125 684.75219727 C31.43563563 696.76232466 37.1951166 708.86251653 43 721 C51.91 738.82 60.82 756.64 70 775 C70.495 556.705 70.495 556.705 71 334 C110.27 334 149.54 334 190 334 C190 508.24 190 682.48 190 862 C194.62 862.33 199.24 862.66 204 863 C207.81677619 863.38742851 211.62587154 863.80139058 215.43554688 864.25 C230.60064042 865.94235569 245.81768837 866.23721477 261.0625 866.25 C262.01589264 866.25133942 262.96928528 866.25267883 263.9515686 866.25405884 C286.02760041 866.24738747 308.05266729 865.06054416 329.72265625 860.55078125 C333.20407033 859.96570451 336.47633168 859.90573626 340 860 C338.64521234 862.99213122 337.10885559 865.18856669 334.8671875 867.58203125 C334.23385498 868.25935303 333.60052246 868.9366748 332.94799805 869.63452148 C332.26390869 870.35325439 331.57981934 871.0719873 330.875 871.8125 C330.16577393 872.56152588 329.45654785 873.31055176 328.72583008 874.08227539 C321.99818263 881.12000737 314.96987958 887.80073539 307.78515625 894.36767578 C306.16256188 895.85135548 304.54854249 897.3436468 302.9375 898.83984375 C296.81965958 904.47972789 290.48791392 909.79246968 284 915 C282.88818359 915.91458984 282.88818359 915.91458984 281.75390625 916.84765625 C273.10154127 923.91050531 264.03547316 930.44032289 255 937 C254.26797363 937.53206055 253.53594727 938.06412109 252.78173828 938.61230469 C231.06133321 954.33897773 208.11964772 968.32945297 183.98095703 980.02929688 C181.81945484 981.08847025 179.67274636 982.17422587 177.52734375 983.265625 C176.42289917 983.82588379 176.42289917 983.82588379 175.29614258 984.39746094 C173.87932959 985.11694002 172.46374066 985.8388361 171.04956055 986.56347656 C166.22384271 989 166.22384271 989 164 989 C164 781.43 164 573.86 164 360 C141.56 360 119.12 360 96 360 C96 566.91 96 773.82 96 987 C82.49684263 992.62631557 82.49684263 992.62631557 77.37890625 993.9140625 C76.25806641 994.20023438 75.13722656 994.48640625 73.98242188 994.78125 C72.85384766 995.0596875 71.72527344 995.338125 70.5625 995.625 C69.43779297 995.91117188 68.31308594 996.19734375 67.15429688 996.4921875 C48.4797266 1001.21178022 29.73222206 1005.22796008 10.6875 1008.125 C9.67091309 1008.28347412 8.65432617 1008.44194824 7.60693359 1008.60522461 C4.07707119 1009.12512471 0.54326503 1009.58346821 -3 1010 C-4.1371344 1010.13400711 -4.1371344 1010.13400711 -5.29724121 1010.27072144 C-22.05627696 1012.1608026 -38.7810063 1012.34381513 -55.62207031 1012.31567383 C-58.61343469 1012.3110539 -61.60439129 1012.31794144 -64.59570312 1012.33618164 C-92.81419042 1012.5065098 -120.2131431 1010.21003567 -148 1005 C-149.21429687 1004.7740918 -150.42859375 1004.54818359 -151.6796875 1004.31542969 C-165.06215534 1001.80116825 -178.38111726 999.26169444 -191.375 995.1328125 C-194.87483588 994.03911379 -198.37915362 993.13164386 -201.9375 992.25 C-248.47372774 979.9490226 -294.89989006 957.50702674 -335 931 C-336.05316406 930.319375 -337.10632813 929.63875 -338.19140625 928.9375 C-350.53632751 920.87551061 -362.39419871 912.04927718 -374.125 903.125 C-375.13566528 902.35893433 -375.13566528 902.35893433 -376.16674805 901.57739258 C-380.95230768 897.90903797 -385.50364294 894.01646745 -390 890 C-388.48943349 884.95306465 -386.33992755 880.48476545 -383.921875 875.83203125 C-383.51851929 875.04765686 -383.11516357 874.26328247 -382.69958496 873.45513916 C-381.38713477 870.90546718 -380.06862971 868.35898073 -378.75 865.8125 C-377.8404603 864.04828126 -376.9312831 862.28387559 -376.02246094 860.51928711 C-371.97577382 852.66764933 -367.91166835 844.82503001 -363.84375 836.984375 C-363.53149475 836.38247849 -363.2192395 835.78058197 -362.89752197 835.16044617 C-361.49005072 832.44839844 -360.08042995 829.73750817 -358.66699219 827.02856445 C-354.78359101 819.57171366 -351.01334113 812.0611108 -347.26452637 804.53610229 C-344.71235323 799.417528 -342.15218978 794.30294397 -339.59375 789.1875 C-338.42575254 786.85157686 -337.25778424 784.51563913 -336.08984375 782.1796875 C-335.49332861 780.98665275 -334.89681167 779.7936189 -334.30029297 778.60058594 C-334.00346619 778.00693237 -333.7066394 777.41327881 -333.40081787 776.80163574 C-322.93387858 755.86775716 -312.46693929 734.93387858 -302 714 C-249.86 713.67 -197.72 713.34 -144 713 C-146.97 708.38 -149.94 703.76 -153 699 C-155.36735487 694.78822066 -157.68468868 690.58295528 -159.9375 686.3125 C-160.52942139 685.20052246 -161.12134277 684.08854492 -161.73120117 682.94287109 C-162.92408348 680.69951133 -164.11432726 678.45474629 -165.30175781 676.20849609 C-166.88710368 673.21329549 -168.48428858 670.22478708 -170.0859375 667.23828125 C-170.99524632 665.53409668 -171.90412982 663.82968507 -172.8125 662.125 C-173.22685303 661.35325439 -173.64120605 660.58150879 -174.06811523 659.78637695 C-174.44395752 659.07570068 -174.8197998 658.36502441 -175.20703125 657.6328125 C-175.5316333 657.02324707 -175.85623535 656.41368164 -176.19067383 655.78564453 C-177 654 -177 654 -178 650 C-207.7 650 -237.4 650 -268 650 C-266.5463355 645.63900649 -265.1165692 641.98461173 -263.0859375 637.92895508 C-262.49772217 636.74944778 -261.90950684 635.56994049 -261.3034668 634.35469055 C-260.66078369 633.07623415 -260.01795753 631.79784966 -259.375 630.51953125 C-258.70649411 629.18371491 -258.03828683 627.84774909 -257.37036133 626.51164246 C-255.96731716 623.70711646 -254.56160528 620.90394993 -253.15380859 618.10180664 C-251.37925699 614.56947195 -249.6098368 611.03459996 -247.84221458 607.4987936 C-241.54613735 594.90717533 -235.23632123 582.32860714 -228.62564087 569.89831543 C-223.01025701 559.30480228 -217.71951137 548.54429819 -212.375 537.8125 C-211.26451266 535.58649388 -210.15383663 533.36058187 -209.04296875 531.13476562 C-206.35981099 525.75758951 -203.67895422 520.37927149 -201 515 C-200.34 515 -199.68 515 -199 515 C-198.81993408 516.01646606 -198.81993408 516.01646606 -198.63623047 517.0534668 C-196.06120194 531.41960666 -193.09932268 545.48679515 -188.79003906 559.43774414 C-188.22437123 561.27231889 -187.67035025 563.11050071 -187.12402344 564.95092773 C-184.53902699 573.57528386 -181.54450425 582.01537537 -178.375 590.4375 C-178.11366272 591.1335434 -177.85232544 591.82958679 -177.58306885 592.54672241 C-170.70340576 610.80966491 -162.71380045 628.40426483 -153.34814453 645.53222656 C-152.43134222 647.2104297 -151.52109231 648.89222548 -150.61669922 650.57714844 C-143.92470816 663.02174373 -136.5876505 674.94122241 -128.75 686.6875 C-128.33220276 687.31475983 -127.91440552 687.94201965 -127.48394775 688.58828735 C-110.06218296 714.66953533 -89.84142706 738.36618432 -67.64672852 760.48364258 C-65.80041754 762.32454708 -63.95957727 764.17080272 -62.11914062 766.01757812 C-56.2529872 771.88742809 -50.38980236 777.69318256 -44 783 C-43.06414063 783.78246094 -42.12828125 784.56492187 -41.1640625 785.37109375 C-38.44520695 787.58382388 -35.72335552 789.79281087 -33 792 C-32.24332031 792.62519531 -31.48664062 793.25039062 -30.70703125 793.89453125 C-0.36896254 818.69759947 33.54022843 838.55079287 69 855 C69.17553906 850.83387292 69.28127105 846.66870678 69.375 842.5 C69.45041016 840.74042969 69.45041016 840.74042969 69.52734375 838.9453125 C69.54667969 837.79804687 69.56601563 836.65078125 69.5859375 835.46875 C69.6173584 834.42138672 69.6487793 833.37402344 69.68115234 832.29492188 C68.85704961 828.30850949 67.21821397 826.42730348 64.70654297 823.30752563 C61.39695731 818.8324237 59.12640354 813.75702793 56.67578125 808.77734375 C56.08887009 807.60023331 55.50195892 806.42312286 54.89726257 805.21034241 C53.34073116 802.08774231 51.79415831 798.9603102 50.24945068 795.83184814 C49.01906174 793.34421987 47.78149529 790.86020028 46.54353523 788.37633324 C40.2143283 775.67607614 33.98166078 762.93344191 27.88801575 750.1181488 C23.78998819 741.51617963 19.53929833 732.99487282 15.25201416 724.48599243 C8.12029778 710.32529561 1.10432341 696.12117349 -5.67626953 681.78857422 C-14.73031524 662.71529681 -24.03832033 643.7624934 -33.31924438 624.79901123 C-39.23555962 612.71025347 -45.13770272 600.61504579 -51 588.5 C-57.15780726 575.7771131 -63.35261096 563.07254536 -69.5625 550.375 C-70.02327942 549.43281616 -70.48405884 548.49063232 -70.95880127 547.51989746 C-75.79117544 537.63988174 -80.62677473 527.76144636 -85.46427917 517.88394165 C-87.93481186 512.8394376 -90.40501704 507.79477324 -92.875 502.75 C-93.3617923 501.75579041 -93.84858459 500.76158081 -94.35012817 499.73724365 C-100.25776146 487.6698708 -106.14800123 475.59444854 -112 463.5 C-121.22365737 444.43871411 -130.54314848 425.42438297 -139.86035156 406.40869141 C-142.57238984 400.87343428 -145.28279632 395.33737958 -147.99284363 389.80114746 C-150.22488645 385.24180291 -152.45770413 380.68283812 -154.69070435 376.1239624 C-155.75270882 373.95550926 -156.81446553 371.78693477 -157.87594604 369.6182251 C-160.77805856 363.68942045 -163.68602403 357.76356152 -166.6026001 351.84185791 C-167.55219537 349.91068929 -168.49933348 347.9783109 -169.4442749 346.04486084 C-170.82580801 343.21855728 -172.2148022 340.39603693 -173.60546875 337.57421875 C-174.02073318 336.72019974 -174.43599762 335.86618073 -174.86384583 334.98628235 C-175.24804184 334.21052353 -175.63223785 333.43476471 -176.02807617 332.63549805 C-176.36215988 331.95440475 -176.69624359 331.27331146 -177.04045105 330.57157898 C-177.91971288 328.81916981 -177.91971288 328.81916981 -180 328 C-180.22171875 328.79148437 -180.4434375 329.58296875 -180.671875 330.3984375 C-182.40396819 335.09546669 -184.79840864 339.26989885 -187.25 343.625 C-192.10150176 352.37123324 -196.68695746 361.22495267 -201.125 370.1875 C-204.96906167 377.94876561 -208.84276451 385.6801534 -212.9375 393.3125 C-218.02386431 402.81877628 -222.66575852 412.54077795 -227.29663086 422.2746582 C-231.02801481 430.09021312 -234.95930367 437.7746251 -239.02026367 445.4239502 C-244.36455995 455.52303179 -249.41887547 465.76678079 -254.5 476 C-256.4453811 479.91793414 -258.39374427 483.83436588 -260.34375 487.75 C-260.76386353 488.59852539 -261.18397705 489.44705078 -261.61682129 490.32128906 C-264.06505387 495.23667375 -266.58248043 500.10914878 -269.16158867 504.95672607 C-276.20370471 518.21255749 -282.85682353 531.65925043 -289.52836227 545.1038208 C-291.75282857 549.58589939 -293.98241785 554.06541767 -296.21304321 558.54443359 C-296.9819939 560.08859194 -297.7509434 561.63275088 -298.51989174 563.1769104 C-298.90422977 563.94870258 -299.2885678 564.72049477 -299.68455243 565.51567459 C-304.86096162 575.91128769 -310.03341489 586.30884457 -315.19482422 596.71191406 C-318.70115205 603.77898621 -322.21454291 610.84249687 -325.73610842 617.90198898 C-327.59259204 621.6243188 -329.44536801 625.34839294 -331.28940964 629.0769043 C-333.01613248 632.56812458 -334.75205566 636.05460861 -336.49520493 639.53765488 C-337.13240553 640.81502917 -337.76617146 642.09412346 -338.3962326 643.37503433 C-339.25646662 645.12261551 -340.1302645 646.86350047 -341.00473022 648.60400391 C-341.48951025 649.57947174 -341.97429028 650.55493958 -342.4737606 651.55996704 C-344.76998602 655.23099382 -346.91194181 656.68253315 -351.0390625 657.88671875 C-352.22242188 658.15097656 -353.40578125 658.41523437 -354.625 658.6875 C-374.57958164 663.61084578 -393.7012399 674.41721457 -409 688 C-410.23943359 689.02480469 -410.23943359 689.02480469 -411.50390625 690.0703125 C-418.79933437 696.25829691 -426.66865819 704.33731639 -431 713 C-412.85 713.33 -394.7 713.66 -376 714 C-386.32489133 735.7969928 -386.32489133 735.7969928 -390.6015625 744.08203125 C-391.08115417 745.01760361 -391.56074585 745.95317596 -392.05487061 746.917099 C-393.06195911 748.8812678 -394.07026274 750.84481403 -395.07977295 752.80773926 C-397.731272 757.96369368 -400.37352679 763.12437973 -403.015625 768.28515625 C-403.53486542 769.29903412 -404.05410583 770.31291199 -404.58908081 771.35751343 C-408.90550979 779.79483754 -413.15698188 788.26314596 -417.375 796.75 C-424.6241581 811.32476498 -432.12436507 825.75342462 -440 840 C-450.58781741 831.43963699 -458.76746768 820.74802831 -467 810 C-467.49435547 809.35724121 -467.98871094 808.71448242 -468.49804688 808.05224609 C-483.75497715 788.16620216 -497.04938475 767.02606426 -509 745 C-509.68231689 743.74606445 -509.68231689 743.74606445 -510.37841797 742.46679688 C-522.97607214 719.1823923 -532.97437234 695.17595078 -541.82910156 670.27246094 C-542.89820877 667.28448909 -543.99898628 664.31020474 -545.10546875 661.3359375 C-556.2168013 630.78465739 -561.65609743 598.11222459 -566 566 C-566.09408142 565.3053363 -566.18816284 564.61067261 -566.28509521 563.8949585 C-575.88099816 491.67247029 -567.40371927 416.07219223 -544.1875 347.1875 C-543.92510529 346.40596558 -543.66271057 345.62443115 -543.3923645 344.81921387 C-536.38246261 323.96543902 -528.48682287 303.86764044 -519 284 C-518.55253418 283.05979004 -518.10506836 282.11958008 -517.64404297 281.15087891 C-507.93284133 260.87985509 -496.48807419 241.67516093 -484 223 C-483.55446777 222.33307129 -483.10893555 221.66614258 -482.64990234 220.97900391 C-473.3330895 207.09598052 -463.49353075 193.66870653 -452.5703125 181.00390625 C-450.21652665 178.25305318 -447.94585614 175.45419524 -445.6875 172.625 C-436.5435501 161.44013334 -426.3123528 151.22479319 -416.125 141 C-415.24553711 140.11586426 -414.36607422 139.23172852 -413.45996094 138.32080078 C-408.4668383 133.33997648 -403.36785089 128.57287802 -398 124 C-396.88207386 123.02688957 -395.7648582 122.0529622 -394.6484375 121.078125 C-386.6253458 114.1283323 -378.4410179 107.43595294 -370 101 C-369.44328613 100.57428711 -368.88657227 100.14857422 -368.31298828 99.70996094 C-350.11088725 85.87235325 -330.82183145 73.37977828 -311 62 C-310.17983398 61.52675293 -309.35966797 61.05350586 -308.51464844 60.56591797 C-273.39763131 40.45146701 -235.25673857 24.01326135 -196 14 C-194.72672852 13.67306152 -193.45345703 13.34612305 -192.14160156 13.00927734 C-175.21517574 8.6880081 -158.2647555 4.73137808 -141 2 C-140.19401367 1.86787109 -139.38802734 1.73574219 -138.55761719 1.59960938 C-132.38729395 0.5971479 -126.20430759 -0.23783937 -120 -1 C-118.35185303 -1.20737793 -118.35185303 -1.20737793 -116.67041016 -1.41894531 C-78.35078132 -6.07936963 -38.16183059 -6.08716316 0 0 Z " fill="#0F3B60" transform="translate(1128,536)"/>
<path d="M0 0 C0.66 0 1.32 0 2 0 C2.07927734 0.5990918 2.15855469 1.19818359 2.24023438 1.81542969 C9.31311184 53.96324727 24.55322038 102.90041971 48 150 C48.42394043 150.85722656 48.84788086 151.71445313 49.28466797 152.59765625 C72.69589358 199.627704 109.93297788 248.58551587 151.59375 281.0859375 C154.01789417 283.014234 156.24565851 285.06440442 158.5 287.1875 C166.12925893 294.12758657 174.64018926 299.98454554 183 306 C183.7532959 306.5465625 184.5065918 307.093125 185.28271484 307.65625 C194.90576404 314.6346176 204.69432134 321.07732535 215 327 C215.57814453 327.33451172 216.15628906 327.66902344 216.75195312 328.01367188 C220.1968347 330.00603292 223.65381885 331.97616912 227.11865234 333.93359375 C229.20408034 335.11567907 231.28365674 336.30773664 233.36328125 337.5 C234.82539329 338.33355709 236.28763057 339.16689456 237.75 340 C238.78821899 340.59748047 238.78821899 340.59748047 239.84741211 341.20703125 C243.21089478 343.28955548 243.21089478 343.28955548 247 344 C249.64529598 346.64498853 250.89733232 348.31129859 251.45410156 352.04614258 C251.42268066 353.70359497 251.42268066 353.70359497 251.390625 355.39453125 C251.37128906 357.19760742 251.37128906 357.19760742 251.3515625 359.03710938 C251.30128906 360.90592773 251.30128906 360.90592773 251.25 362.8125 C251.23195313 364.07771484 251.21390625 365.34292969 251.1953125 366.64648438 C251.14823916 369.76509335 251.08249094 372.88215973 251 376 C231.08175037 367.78986518 212.11075239 357.65312958 194 346 C193.27006836 345.53126465 192.54013672 345.0625293 191.78808594 344.57958984 C176.29244565 334.56874221 161.18711792 323.80312117 147 312 C146.00097656 311.17371094 145.00195312 310.34742188 143.97265625 309.49609375 C131.43294709 299.05207613 119.65845417 287.84526711 108.12353516 276.30883789 C106.24269682 274.43020538 104.35394812 272.55976894 102.46484375 270.68945312 C95.50718858 263.76361381 89.08527289 256.7128432 83 249 C82.07728283 247.90961211 81.14763276 246.82499838 80.20703125 245.75 C66.99305971 230.57441116 55.68110479 214.02543703 45 197 C44.60538574 196.37270996 44.21077148 195.74541992 43.80419922 195.09912109 C41.10934528 190.78566371 38.54267613 186.4044801 36 182 C35.47212891 181.09556152 34.94425781 180.19112305 34.40039062 179.25927734 C18.79136306 152.39390609 6.08335809 124.39634648 -4 95 C-4.2592627 94.25121582 -4.51852539 93.50243164 -4.78564453 92.73095703 C-7.87385843 83.70336372 -10.2581233 74.47153761 -12.6875 65.25 C-12.98551514 64.12464844 -13.28353027 62.99929688 -13.59057617 61.83984375 C-18.2060999 43.9709296 -18.2060999 43.9709296 -18 35 C-18.66 34.67 -19.32 34.34 -20 34 C-19.43023438 33.505 -18.86046875 33.01 -18.2734375 32.5 C-15.35504289 29.29076881 -13.58539567 25.84604489 -11.625 22 C-11.23505859 21.24976563 -10.84511719 20.49953125 -10.44335938 19.7265625 C-7.59439381 14.22575914 -4.81564084 8.68975462 -2.09375 3.125 C-1 1 -1 1 0 0 Z " fill="#CDCFD0" transform="translate(947,1016)"/>
<path d="M0 0 C39.27 0 78.54 0 119 0 C119 174.24 119 348.48 119 528 C123.62 528.33 128.24 528.66 133 529 C136.81677619 529.38742851 140.62587154 529.80139058 144.43554688 530.25 C159.60064042 531.94235569 174.81768837 532.23721477 190.0625 532.25 C191.01589264 532.25133942 191.96928528 532.25267883 192.9515686 532.25405884 C215.02760041 532.24738747 237.05266729 531.06054416 258.72265625 526.55078125 C262.20407033 525.96570451 265.47633168 525.90573626 269 526 C267.64521234 528.99213122 266.10885559 531.18856669 263.8671875 533.58203125 C263.23385498 534.25935303 262.60052246 534.9366748 261.94799805 535.63452148 C261.26390869 536.35325439 260.57981934 537.0719873 259.875 537.8125 C259.16577393 538.56152588 258.45654785 539.31055176 257.72583008 540.08227539 C250.99818263 547.12000737 243.96987958 553.80073539 236.78515625 560.36767578 C235.16256188 561.85135548 233.54854249 563.3436468 231.9375 564.83984375 C225.81965958 570.47972789 219.48791392 575.79246968 213 581 C211.88818359 581.91458984 211.88818359 581.91458984 210.75390625 582.84765625 C202.10154127 589.91050531 193.03547316 596.44032289 184 603 C183.26797363 603.53206055 182.53594727 604.06412109 181.78173828 604.61230469 C160.06133321 620.33897773 137.11964772 634.32945297 112.98095703 646.02929688 C110.81945484 647.08847025 108.67274636 648.17422587 106.52734375 649.265625 C105.42289917 649.82588379 105.42289917 649.82588379 104.29614258 650.39746094 C102.87932959 651.11694002 101.46374066 651.8388361 100.04956055 652.56347656 C95.22384271 655 95.22384271 655 93 655 C93 447.43 93 239.86 93 26 C93.33 26 93.66 26 94 26 C94 223.67 94 421.34 94 625 C126.23419701 608.88290149 156.07311428 590.90386771 184.23486328 568.39941406 C187.80143732 565.57180654 191.40317834 562.78896049 195 560 C193.83992432 559.9906543 192.67984863 559.98130859 191.48461914 559.97167969 C186.99405435 559.9304505 182.50408477 559.86440622 178.01391602 559.79248047 C176.10546776 559.7650117 174.19692135 559.74344893 172.28833008 559.72900391 C153.84203557 559.58147289 136.52483868 557.24543499 118 555 C118 372.18 118 189.36 118 1 C79.06 1 40.12 1 0 1 C0 0.67 0 0.34 0 0 Z " fill="#979C9E" transform="translate(1199,870)"/>
<path d="M0 0 C0.33 0 0.66 0 1 0 C1 206.91 1 413.82 1 627 C-6.875 630.375 -6.875 630.375 -11 630 C-8.14693203 627.67527795 -5.45925163 626.2491742 -2 625 C-0.69672785 615.06121598 -0.86693861 605.14619863 -0.88647461 595.1424408 C-0.88675485 593.10499481 -0.88659121 591.06754872 -0.88602352 589.03010279 C-0.88572841 583.44059943 -0.89165741 577.85111739 -0.89859343 572.26161897 C-0.90497752 566.22360312 -0.90553778 560.18558645 -0.9067688 554.14756775 C-0.9096577 543.66575225 -0.91608532 533.18394314 -0.92483521 522.70213127 C-0.93751699 507.43294413 -0.94350062 492.16375934 -0.94776857 476.8945678 C-0.94977521 469.74601154 -0.95210328 462.5974554 -0.95451355 455.44889927 C-0.95475456 454.73291275 -0.95499558 454.01692624 -0.95524389 453.27924317 C-0.96105857 436.22546756 -0.970006 419.17169383 -0.97949219 402.11791992 C-0.98011266 400.99920311 -0.98011266 400.99920311 -0.98074566 399.85788595 C-0.98868007 385.56244051 -0.99690117 371.26699523 -1.00520325 356.97154999 C-1.01037111 348.07014469 -1.01547332 339.16873936 -1.02050781 330.26733398 C-1.0209224 329.53640238 -1.02133699 328.80547078 -1.02176414 328.05238973 C-1.0312954 311.21707657 -1.03983925 294.38176366 -1.04548645 277.54644871 C-1.04572744 276.82905009 -1.04596844 276.11165147 -1.04621673 275.3725135 C-1.0486091 268.18658994 -1.05083633 261.00066635 -1.05282298 253.81474267 C-1.05687091 239.29179922 -1.06288207 224.76886302 -1.07516479 210.245924 C-1.13361558 140.15747401 -0.83032484 70.08383049 0 0 Z " fill="#1E3B51" transform="translate(1223,896)"/>
<path d="M0 0 C0.33 0 0.66 0 1 0 C1 216.15 1 432.3 1 655 C-0.65 655.33 -2.3 655.66 -4 656 C-3.01 655.67 -2.02 655.34 -1 655 C-1 647.08 -1 639.16 -1 631 C-4.31544299 631 -6.98001389 631.67226165 -10.1875 632.5 C-11.81751953 632.91765625 -11.81751953 632.91765625 -13.48046875 633.34375 C-14.31191406 633.5603125 -15.14335938 633.776875 -16 634 C-16.33 633.34 -16.66 632.68 -17 632 C-16.09636719 631.72285156 -15.19273438 631.44570312 -14.26171875 631.16015625 C-13.08222656 630.79792969 -11.90273437 630.43570313 -10.6875 630.0625 C-9.51574219 629.70285156 -8.34398437 629.34320312 -7.13671875 628.97265625 C-5.08446023 628.33627721 -3.03839863 627.67946621 -1 627 C-0.67 420.09 -0.34 213.18 0 0 Z " fill="#BDCCD8" transform="translate(1224,896)"/>
<path d="M0 0 C-4.60205849 2.52394145 -8.93584436 3.90593062 -14 5.0625 C-17.74055584 5.93787444 -21.43712478 6.80617639 -25.07421875 8.05859375 C-28.32767666 9.10543401 -31.42332305 9.57397551 -34.8125 10 C-39.54112584 10.63378441 -44.13286424 11.41548089 -48.7734375 12.50390625 C-53.47807595 13.55213271 -58.23922846 14.25852645 -63 15 C-63.70044434 15.1148877 -64.40088867 15.22977539 -65.12255859 15.34814453 C-79.94901028 17.76718058 -94.77114505 18.89288466 -109.76293945 19.75048828 C-112.13318897 19.93318645 -114.49690068 20.20683549 -116.85180664 20.53222656 C-121.18027726 21.09123143 -125.40238953 21.05001872 -129.7578125 20.9140625 C-130.57463501 20.89332169 -131.39145752 20.87258087 -132.23303223 20.85121155 C-134.86391943 20.78245128 -137.4944163 20.70448006 -140.125 20.625 C-141.95100591 20.57256092 -143.77701505 20.520234 -145.60302734 20.46801758 C-149.16649191 20.36449734 -152.72976275 20.2560936 -156.29296875 20.14404297 C-160.01792842 20.0275687 -163.74292384 19.932616 -167.46875 19.84765625 C-193.88653028 19.11604237 -220.44993961 14.44320776 -246.25 8.875 C-247.36810059 8.63716797 -247.36810059 8.63716797 -248.50878906 8.39453125 C-251.85735579 7.64232844 -254.10878804 6.92747464 -257 5 C-251.14729196 5.59550721 -245.42383346 6.39578875 -239.65234375 7.5234375 C-238.07282743 7.82444207 -236.49323463 8.12504549 -234.91357422 8.42529297 C-234.10047791 8.58076599 -233.28738159 8.73623901 -232.449646 8.89642334 C-217.02543879 11.8348137 -201.63601185 14.45734562 -186 16 C-185.14591049 16.08619598 -184.29182098 16.17239197 -183.41184998 16.26119995 C-175.21239729 17.02135572 -167.05451934 17.18053097 -158.82421875 17.203125 C-157.75689483 17.20736607 -157.75689483 17.20736607 -156.6680088 17.21169281 C-152.88454462 17.22659218 -149.10111749 17.23587368 -145.31762695 17.24023438 C-142.26476775 17.24457059 -139.21219892 17.25828438 -136.15942383 17.28125 C-108.95876644 17.48137746 -82.31199538 15.94871724 -55.5 11 C-54.0822189 10.748938 -52.66424778 10.49894681 -51.24609375 10.25 C-47.15886369 9.5269593 -43.07837838 8.77128108 -39 8 C-38.33164124 7.87425598 -37.66328247 7.74851196 -36.97467041 7.61895752 C-29.49265342 6.20151952 -22.14019821 4.66480955 -14.875 2.375 C-2.74318182 -1.37159091 -2.74318182 -1.37159091 0 0 Z " fill="#A2AFBA" transform="translate(1207,1530)"/>
<path d="M0 0 C0.33 0 0.66 0 1 0 C0.61128991 5.4419413 -0.31024249 10.46956041 -1.6875 15.75 C-6.15710995 33.01397364 -9.66449461 50.54493321 -12.25 68.1875 C-12.40082031 69.19200195 -12.55164063 70.19650391 -12.70703125 71.23144531 C-15.66648981 92.55421089 -16.37835554 113.99964585 -16.3125 135.5 C-16.31100952 136.71480042 -16.30951904 137.92960083 -16.3079834 139.18121338 C-16.24675656 167.0709523 -14.14265251 194.08348602 -9.31958008 221.58520508 C-8.98878127 224.0847704 -8.94466103 226.48165539 -9 229 C-9.66 228.67 -10.32 228.34 -11 228 C-11.5625 225.69018555 -11.5625 225.69018555 -12 222.63671875 C-12.165 221.52103516 -12.33 220.40535156 -12.5 219.25585938 C-12.7475 217.48952148 -12.7475 217.48952148 -13 215.6875 C-13.33259187 213.39963167 -13.66592193 211.11187053 -14 208.82421875 C-14.16387207 207.68106201 -14.32774414 206.53790527 -14.49658203 205.36010742 C-14.96719347 202.21897004 -15.50152269 199.09621909 -16.0546875 195.96875 C-21.95318427 160.88654589 -20.00536256 123.28437461 -17 88 C-16.93055176 87.10845215 -16.86110352 86.2169043 -16.78955078 85.29833984 C-14.55608952 56.8657529 -9.02674758 27.08024273 0 0 Z " fill="#95A3AE" transform="translate(576,904)"/>
<path d="M0 0 C0.99 0.33 1.98 0.66 3 1 C-7.43925152 10.53733089 -7.43925152 10.53733089 -12.0625 14.5625 C-20.67608055 22.06337156 -28.98238246 29.8005132 -37.0625 37.875 C-38.4556543 39.24978516 -38.4556543 39.24978516 -39.87695312 40.65234375 C-45.25620025 46.02026614 -50.24651381 51.53603238 -54.97021484 57.49047852 C-57.08196935 60.10134267 -59.2957923 62.58561875 -61.5625 65.0625 C-69.38668105 73.69329766 -76.25460243 82.97036322 -83.0769043 92.40014648 C-83.65480713 93.19364502 -84.23270996 93.98714355 -84.828125 94.8046875 C-85.3427832 95.51608887 -85.85744141 96.22749023 -86.38769531 96.96044922 C-88.11587212 99.14657717 -89.99569412 101.06684969 -92 103 C-91.35952602 99.55251042 -90.00294981 97.15355815 -88.0625 94.25 C-87.53785156 93.45078125 -87.01320313 92.6515625 -86.47265625 91.828125 C-85.98667969 91.22484375 -85.50070312 90.6215625 -85 90 C-84.34 90 -83.68 90 -83 90 C-82.75378906 89.28199219 -82.50757813 88.56398438 -82.25390625 87.82421875 C-80.85883684 84.68205308 -79.13528193 82.44904058 -76.9375 79.8125 C-74.19079836 76.58717013 -74.19079836 76.58717013 -72 73 C-71.34 73 -70.68 73 -70 73 C-69.731875 72.4225 -69.46375 71.845 -69.1875 71.25 C-67.97070811 68.94449957 -66.69666121 66.97943808 -65 65 C-64.34 65 -63.68 65 -63 65 C-62.731875 64.195625 -62.46375 63.39125 -62.1875 62.5625 C-61.795625 61.716875 -61.40375 60.87125 -61 60 C-59.515 59.505 -59.515 59.505 -58 59 C-57.31264581 57.34175803 -56.64934351 55.67349192 -56 54 C-54.125 51.54296875 -54.125 51.54296875 -52 49.1875 C-51.29875 48.39730469 -50.5975 47.60710938 -49.875 46.79296875 C-48 45 -48 45 -46 45 C-45.7525 44.4225 -45.505 43.845 -45.25 43.25 C-43.81700012 40.67060021 -42.21575324 38.93878408 -40 37 C-39.34 37 -38.68 37 -38 37 C-37.34 35.68 -36.68 34.36 -36 33 C-35.34 33 -34.68 33 -34 33 C-34 32.34 -34 31.68 -34 31 C-33.34 31 -32.68 31 -32 31 C-31.773125 30.443125 -31.54625 29.88625 -31.3125 29.3125 C-29.62449964 26.33840412 -27.53323483 24.27991135 -25 22 C-24.34 22 -23.68 22 -23 22 C-22.62875 21.0409375 -22.62875 21.0409375 -22.25 20.0625 C-21 18 -21 18 -18.875 17.25 C-18.25625 17.1675 -17.6375 17.085 -17 17 C-17 16.34 -17 15.68 -17 15 C-16.34 15 -15.68 15 -15 15 C-14.9071875 14.1028125 -14.9071875 14.1028125 -14.8125 13.1875 C-13.66037093 10.08561405 -11.86474503 9.59152502 -9 8 C-7.92203721 7.1228342 -6.85966941 6.22620664 -5.8125 5.3125 C-3 3 -3 3 -1 3 C-0.67 2.01 -0.34 1.02 0 0 Z " fill="#B3C0CA" transform="translate(741,648)"/>
<path d="M0 0 C0.66 0 1.32 0 2 0 C0.2441973 5.15244483 -2.67083065 9.57510732 -5.5 14.1875 C-28.48984909 52.15934307 -45.34319876 91.80862397 -59 134 C-60.07348633 132.1965332 -60.07348633 132.1965332 -61 130 C-59.82421875 126.85546875 -59.82421875 126.85546875 -58.93505859 125.01708984 C-57.93238495 122.85414215 -57.1863076 120.69510939 -56.45703125 118.42578125 C-56.19196777 117.60335937 -55.9269043 116.7809375 -55.65380859 115.93359375 C-55.37617676 115.06863281 -55.09854492 114.20367188 -54.8125 113.3125 C-51.57782849 103.41451003 -47.81991371 93.79572445 -43.86962891 84.16552734 C-42.69495406 81.24038251 -41.63404129 78.27672933 -40.5625 75.3125 C-38.35762212 69.52377379 -35.54466314 64.17860499 -32.59375 58.74658203 C-28.37849449 50.95851237 -24.63548216 42.95985564 -20.91040039 34.9284668 C-19.97006413 32.93658799 -18.99215525 30.96651031 -18 29 C-17.34 29 -16.68 29 -16 29 C-15.773125 28.175 -15.54625 27.35 -15.3125 26.5 C-13.95884778 22.89026076 -12.24339016 20.02492229 -10.12109375 16.83203125 C-8.83810114 14.89004926 -8.83810114 14.89004926 -8 12 C-7.34 12 -6.68 12 -6 12 C-5.7525 11.13375 -5.505 10.2675 -5.25 9.375 C-3.92199976 5.78939936 -2.31369152 3.03672013 0 0 Z " fill="#9DAAB5" transform="translate(639,763)"/>
<path d="M0 0 C-3.23592741 2.15728494 -6.5982604 3.77176776 -10.10546875 5.421875 C-11.56739876 6.11687658 -13.02897292 6.81262707 -14.49023438 7.5090332 C-15.64011841 8.05679916 -15.64011841 8.05679916 -16.81323242 8.6156311 C-32.34777373 16.03766754 -47.33830669 23.95055651 -62 33 C-62.83337891 33.50837402 -63.66675781 34.01674805 -64.52539062 34.54052734 C-80.26872123 44.15971485 -95.52525195 54.55429887 -110 66 C-110.33 65.34 -110.66 64.68 -111 64 C-108.22719294 60.91910327 -105.93673644 59.31224548 -102 58 C-102 57.34 -102 56.68 -102 56 C-99.63631237 54.23987034 -97.2779877 52.60543385 -94.8125 51 C-93.80219727 50.32324219 -93.80219727 50.32324219 -92.77148438 49.6328125 C-89.28364322 47.33253873 -85.98157076 45.36069214 -82 44 C-82 43.34 -82 42.68 -82 42 C-81.46632813 41.72027344 -80.93265625 41.44054687 -80.3828125 41.15234375 C-76.10159959 38.84878455 -72.07002064 36.40746681 -68.125 33.5625 C-63.81490181 30.48004588 -59.37757528 27.92858779 -54.6953125 25.45703125 C-52.18603623 24.10056741 -49.78885488 22.64286468 -47.375 21.125 C-42.17020686 17.9521581 -36.70517187 15.44456976 -31.17822266 12.89550781 C-27.45599997 11.17374206 -23.80872947 9.42077609 -20.25 7.375 C-16.61579858 5.29424154 -12.90196406 3.43462234 -9.125 1.625 C-8.03445313 1.10164062 -6.94390625 0.57828125 -5.8203125 0.0390625 C-3 -1 -3 -1 0 0 Z " fill="#CFDBE4" transform="translate(867,573)"/>
<path d="M0 0 C0.99 0.495 0.99 0.495 2 1 C-4.15343618 7.24437366 -10.27150895 13.3700381 -17 19 C-18.67627157 20.65700609 -20.34171489 22.32499371 -22 24 C-23.39049509 25.37436261 -24.78103625 26.74867954 -26.17292786 28.12162781 C-28.32542567 30.24689459 -30.47220245 32.37790621 -32.61889648 34.5090332 C-33.7407816 35.62089138 -34.86445921 36.73094405 -35.98999023 37.83911133 C-42.19859726 43.95482149 -48.12774714 50.05481298 -53.43359375 56.99438477 C-55.42467962 59.54375672 -57.68392196 61.74651867 -60 64 C-62.34357579 66.71361407 -64.58251929 69.44210253 -66.73046875 72.3125 C-67.33503906 73.116875 -67.93960938 73.92125 -68.5625 74.75 C-69.39974609 75.88695312 -69.39974609 75.88695312 -70.25390625 77.046875 C-72.05479675 79.06129391 -73.52205499 79.98062656 -76 81 C-72.20913612 74.90165377 -67.59341714 69.50503377 -63 64 C-62.16210938 62.98550781 -61.32421875 61.97101562 -60.4609375 60.92578125 C-49.84715683 48.14875808 -38.34513724 36.25784855 -26.625 24.5 C-25.69776123 23.56808838 -24.77052246 22.63617676 -23.81518555 21.67602539 C-18.70398984 16.5767857 -13.50062997 11.6756148 -8 7 C-6.74703125 5.90365234 -6.74703125 5.90365234 -5.46875 4.78515625 C-2.734375 2.39257812 -2.734375 2.39257812 0 0 Z " fill="#C3CFD7" transform="translate(1089,575)"/>
<path d="M0 0 C0.33 0 0.66 0 1 0 C1 49.17 1 98.34 1 149 C-0.65 149.33 -2.3 149.66 -4 150 C-3.01 149.67 -2.02 149.34 -1 149 C-1 141.08 -1 133.16 -1 125 C-4.31544299 125 -6.98001389 125.67226165 -10.1875 126.5 C-11.27417969 126.7784375 -12.36085938 127.056875 -13.48046875 127.34375 C-14.31191406 127.5603125 -15.14335938 127.776875 -16 128 C-16.33 127.34 -16.66 126.68 -17 126 C-16.09636719 125.72285156 -15.19273438 125.44570312 -14.26171875 125.16015625 C-12.49248047 124.61681641 -12.49248047 124.61681641 -10.6875 124.0625 C-8.92986328 123.52302734 -8.92986328 123.52302734 -7.13671875 122.97265625 C-5.08446023 122.33627721 -3.03839863 121.67946621 -1 121 C-0.67 81.07 -0.34 41.14 0 0 Z " fill="#B0C1CE" transform="translate(1224,1402)"/>
<path d="M0 0 C1.10071335 0.00182785 1.10071335 0.00182785 2.22366333 0.00369263 C34.07161505 0.06553835 34.07161505 0.06553835 40.25 2.125 C43.43408693 2.35089806 46.61153341 2.51804559 49.80078125 2.64257812 C53.43854201 2.83271749 55.14614929 3.05576619 58.25 5.125 C51.51880527 5.245185 44.9125692 4.99321407 38.20703125 4.41308594 C24.04965437 3.21158243 9.95238811 2.90160331 -4.25 2.875 C-5.16232391 2.87000488 -6.07464783 2.86500977 -7.01461792 2.85986328 C-18.88499892 2.80646586 -30.52450725 3.40907275 -42.32617188 4.69628906 C-45.81699034 5.06746797 -49.23557382 5.21493048 -52.75 5.125 C-52.42 4.465 -52.09 3.805 -51.75 3.125 C-48.87738431 2.65990984 -46.08053051 2.32221781 -43.1875 2.0625 C-42.03604492 1.94551758 -42.03604492 1.94551758 -40.86132812 1.82617188 C-27.23728795 0.49993788 -13.67877096 -0.04988356 0 0 Z " fill="#C0CCD6" transform="translate(1065.75,529.875)"/>
<path d="M0 0 C0.99 0.495 0.99 0.495 2 1 C2.66674805 3.13525391 2.66674805 3.13525391 3.26171875 5.9765625 C3.48956055 7.02755127 3.71740234 8.07854004 3.95214844 9.16137695 C4.19481445 10.30437256 4.43748047 11.44736816 4.6875 12.625 C10.65885989 39.48326603 19.35020305 66.17907299 30.0390625 91.54296875 C31 94 31 94 31 96 C30.34 96 29.68 96 29 96 C28.32942113 94.2097939 27.6636531 92.41778511 27 90.625 C26.62875 89.62726563 26.2575 88.62953125 25.875 87.6015625 C25 85 25 85 25 83 C24.34 83 23.68 83 23 83 C22.84442627 82.45698242 22.68885254 81.91396484 22.52856445 81.35449219 C18.46210852 67.15708323 18.46210852 67.15708323 12.8828125 53.5078125 C11.84324393 50.55470178 11.84594982 48.10818901 12 45 C11.34 45 10.68 45 10 45 C9.76925781 43.98164062 9.53851562 42.96328125 9.30078125 41.9140625 C7.49860651 34.06527755 5.55030746 26.29906038 3.3125 18.5625 C1.52466895 12.3456936 0.3142134 6.49374369 0 0 Z " fill="#9EADB8" transform="translate(568,1144)"/>
<path d="M0 0 C0.66 0.33 1.32 0.66 2 1 C0.60422048 5.57965635 -1.26951853 9.73685275 -3.4921875 13.9609375 C-3.83465012 14.62079147 -4.17711273 15.28064545 -4.529953 15.960495 C-5.26252265 17.37119678 -5.99698496 18.78091708 -6.73318481 20.18972778 C-8.66050671 23.87834837 -10.57387231 27.57419698 -12.48828125 31.26953125 C-12.87122849 32.00793747 -13.25417572 32.74634369 -13.64872742 33.50712585 C-18.88251993 43.61276302 -23.9491323 53.8019023 -29 64 C-29.33 64 -29.66 64 -30 64 C-30 62.02 -30 60.04 -30 58 C-29.34 58 -28.68 58 -28 58 C-27.67 56.35 -27.34 54.7 -27 53 C-26.34 53 -25.68 53 -25 53 C-25 51.68 -25 50.36 -25 49 C-24.34 49 -23.68 49 -23 49 C-22.9175 48.154375 -22.835 47.30875 -22.75 46.4375 C-22.02279594 43.10448139 -20.82913723 40.84364609 -19.11425781 37.93334961 C-17.26120897 34.7181231 -15.64234515 31.38889048 -14 28.0625 C-13 26.04882812 -13 26.04882812 -12 24.03515625 C-11.67515625 23.37918457 -11.3503125 22.72321289 -11.015625 22.04736328 C-9.35215594 18.69403359 -7.67552875 15.34731747 -6 12 C-5.34 12 -4.68 12 -4 12 C-3.896875 11.13375 -3.79375 10.2675 -3.6875 9.375 C-2.96601586 5.83316877 -1.72876739 3.15687958 0 0 Z " fill="#203F58" transform="translate(899,955)"/>
<path d="M0 0 C-4.60205849 2.52394145 -8.93584436 3.90593062 -14 5.0625 C-17.74055584 5.93787444 -21.43712478 6.80617639 -25.07421875 8.05859375 C-28.32767666 9.10543401 -31.42332305 9.57397551 -34.8125 10 C-39.54083053 10.63440913 -44.14231174 11.40754463 -48.78515625 12.48828125 C-62.0311284 15.54863813 -62.0311284 15.54863813 -69 14 C-69 13.67 -69 13.34 -69 13 C-68.16976318 12.86424561 -67.33952637 12.72849121 -66.48413086 12.58862305 C-38.30482146 8.10466099 -38.30482146 8.10466099 -10.6796875 1.0859375 C-2.59813084 -1.29906542 -2.59813084 -1.29906542 0 0 Z " fill="#8C9BA7" transform="translate(1207,1530)"/>
<path d="M0 0 C0.495 1.485 0.495 1.485 1 3 C0.3709375 3.67804687 -0.258125 4.35609375 -0.90625 5.0546875 C-10.0398229 14.98607249 -18.16852618 25.46949958 -26.07714844 36.40039062 C-26.94388184 37.59051758 -26.94388184 37.59051758 -27.828125 38.8046875 C-28.6001123 39.87178955 -28.6001123 39.87178955 -29.38769531 40.96044922 C-31.11587212 43.14657717 -32.99569412 45.06684969 -35 47 C-34.35952602 43.55251042 -33.00294981 41.15355815 -31.0625 38.25 C-30.53785156 37.45078125 -30.01320313 36.6515625 -29.47265625 35.828125 C-28.98667969 35.22484375 -28.50070312 34.6215625 -28 34 C-27.34 34 -26.68 34 -26 34 C-25.75378906 33.28199219 -25.50757813 32.56398438 -25.25390625 31.82421875 C-23.85883684 28.68205308 -22.13528193 26.44904058 -19.9375 23.8125 C-17.19079836 20.58717013 -17.19079836 20.58717013 -15 17 C-14.34 17 -13.68 17 -13 17 C-12.731875 16.4225 -12.46375 15.845 -12.1875 15.25 C-10.97070811 12.94449957 -9.69666121 10.97943808 -8 9 C-7.34 9 -6.68 9 -6 9 C-5.731875 8.195625 -5.46375 7.39125 -5.1875 6.5625 C-4.795625 5.716875 -4.40375 4.87125 -4 4 C-3.01 3.67 -2.02 3.34 -1 3 C-0.67 2.01 -0.34 1.02 0 0 Z " fill="#A8B6C1" transform="translate(684,704)"/>
<path d="M0 0 C0 3 0 3 -1.4609375 4.82421875 C-2.09257813 5.43910156 -2.72421875 6.05398438 -3.375 6.6875 C-4.00148438 7.31011719 -4.62796875 7.93273437 -5.2734375 8.57421875 C-7 10 -7 10 -9 10 C-9.22671387 10.55268555 -9.45342773 11.10537109 -9.68701172 11.67480469 C-11.3889698 14.68883384 -13.54619518 16.76980213 -16.0078125 19.203125 C-16.49329559 19.6857782 -16.97877869 20.1684314 -17.47897339 20.66571045 C-19.02299866 22.19858562 -20.57384824 23.72434004 -22.125 25.25 C-23.17624009 26.29120361 -24.22702657 27.33286541 -25.27734375 28.375 C-27.84633004 30.92199464 -30.42148161 33.46265177 -33 36 C-33.99 35.67 -34.98 35.34 -36 35 C-31.84066124 30.81583507 -27.67796703 26.63504739 -23.51220703 22.45727539 C-22.09723004 21.03728763 -20.68315415 19.61640133 -19.27001953 18.19458008 C-17.23189049 16.14424238 -15.19048075 14.09721972 -13.1484375 12.05078125 C-12.52319183 11.4203743 -11.89794617 10.78996735 -11.25375366 10.14045715 C-7.65335157 6.53960196 -3.96407279 3.19726085 0 0 Z " fill="#1E3E5A" transform="translate(728,662)"/>
<path d="M0 0 C0.66 0.66 1.32 1.32 2 2 C-5.59 17.18 -13.18 32.36 -21 48 C-21.33 48 -21.66 48 -22 48 C-21.85350745 41.55432797 -19.02499099 37.29141383 -15.7109375 31.8671875 C-13.78492533 28.63957807 -12.3931092 25.482773 -11 22 C-10.0117472 19.9941694 -9.00935661 17.99529427 -8 16 C-7.3183399 14.6383563 -6.63738816 13.27635782 -5.95703125 11.9140625 C-3.97135417 7.94270833 -1.98567708 3.97135417 0 0 Z " fill="#1E3E56" transform="translate(824,1104)"/>
<path d="M0 0 C16.17 0 32.34 0 49 0 C46 3 46 3 42.2980957 3.26464844 C40.75686858 3.22894719 39.21597977 3.17603947 37.67578125 3.109375 C36.85554977 3.08530579 36.0353183 3.06123657 35.19023132 3.03643799 C32.56362878 2.9553168 29.93834716 2.85246504 27.3125 2.75 C25.56319201 2.6952886 23.81384248 2.64188845 22.06445312 2.58984375 C20.372357 2.53504048 18.68029765 2.47908691 16.98828125 2.421875 C15.817528 2.38268951 15.817528 2.38268951 14.62312317 2.3427124 C9.69825741 2.1482885 4.88307049 1.6726661 0 1 C0 0.67 0 0.34 0 0 Z " fill="#2C465C" transform="translate(1346,1429)"/>
<path d="M0 0 C-2.6464897 3.05355146 -5.92967857 4.81026347 -9.42578125 6.72265625 C-10.36359688 7.24187904 -10.36359688 7.24187904 -11.32035828 7.77159119 C-12.64113229 8.50105646 -13.96333692 9.22793667 -15.28686523 9.95239258 C-17.29902643 11.05511609 -19.30499447 12.16851488 -21.31054688 13.28320312 C-22.59859929 13.99283958 -23.88699982 14.70184463 -25.17578125 15.41015625 C-26.06672234 15.90552635 -26.06672234 15.90552635 -26.97566223 16.41090393 C-30.56090086 18.36230845 -34.0932466 19.8225258 -38 21 C-38 20.01 -38 19.02 -38 18 C-36.948125 17.67 -35.89625 17.34 -34.8125 17 C-29.49250043 15.02508009 -24.90574259 11.95188059 -20.12890625 8.9296875 C-17.59943446 7.36968867 -15.10988974 5.97624122 -12.4375 4.6875 C-9.07925634 3.19295004 -9.07925634 3.19295004 -6.8125 1.25 C-4.45076993 -0.37877936 -2.80528303 -0.23377359 0 0 Z " fill="#1E3C54" transform="translate(1332,1474)"/>
<path d="M0 0 C0.66 0.33 1.32 0.66 2 1 C0.44063615 2.89848764 -1.12235589 4.79378663 -2.6875 6.6875 C-3.12255859 7.21794922 -3.55761719 7.74839844 -4.00585938 8.29492188 C-6.8409483 11.71802925 -9.8270237 14.88053089 -13 18 C-15.34357579 20.71361407 -17.58251929 23.44210253 -19.73046875 26.3125 C-20.33503906 27.116875 -20.93960938 27.92125 -21.5625 28.75 C-22.12066406 29.50796875 -22.67882812 30.2659375 -23.25390625 31.046875 C-25.05479675 33.06129391 -26.52205499 33.98062656 -29 35 C-25.2111339 28.90486758 -20.5947575 23.49702555 -16 18 C-15.5354541 17.44231934 -15.0709082 16.88463867 -14.59228516 16.31005859 C-13.14832491 14.57876731 -11.70004498 12.85119706 -10.25 11.125 C-9.80261475 10.5899585 -9.35522949 10.05491699 -8.89428711 9.50366211 C-6.07183201 6.16184596 -3.12838174 3.04960954 0 0 Z " fill="#C7D5DE" transform="translate(1042,621)"/>
<path d="M0 0 C0.66 0 1.32 0 2 0 C0.41375382 3.88101189 -2.08133268 6.29576219 -5.05078125 9.2109375 C-5.54660202 9.7015567 -6.04242279 10.1921759 -6.55326843 10.69766235 C-8.13498127 12.26162513 -9.72321291 13.81873768 -11.3125 15.375 C-12.89023178 16.92493353 -14.4664109 18.47636621 -16.03959656 20.03091431 C-17.47402266 21.44762679 -18.91327 22.85945287 -20.3527832 24.27099609 C-23.07404561 27.07633329 -25.53687521 29.96850464 -28 33 C-28.33 32.01 -28.66 31.02 -29 30 C-27.63671875 27.95703125 -27.63671875 27.95703125 -25.6875 25.8125 C-25.05199219 25.09707031 -24.41648437 24.38164063 -23.76171875 23.64453125 C-22 22 -22 22 -20 22 C-19.67 21.01 -19.34 20.02 -19 19 C-18.34 19 -17.68 19 -17 19 C-16.67 18.01 -16.34 17.02 -16 16 C-15.34 16 -14.68 16 -14 16 C-13.7525 15.4225 -13.505 14.845 -13.25 14.25 C-11.81700012 11.67060021 -10.21575324 9.93878408 -8 8 C-7.34 8 -6.68 8 -6 8 C-5.67 7.01 -5.34 6.02 -5 5 C-4.34 5 -3.68 5 -3 5 C-3 4.34 -3 3.68 -3 3 C-2.34 3 -1.68 3 -1 3 C-0.67 2.01 -0.34 1.02 0 0 Z " fill="#224058" transform="translate(1066,593)"/>
<path d="M0 0 C0.66 0 1.32 0 2 0 C0.48421646 5.0782241 -1.69237133 9.56624042 -4.1328125 14.2421875 C-4.52951141 15.01055939 -4.92621033 15.77893127 -5.33493042 16.57058716 C-6.59424707 19.00750706 -7.859521 21.44127547 -9.125 23.875 C-9.98346914 25.53364916 -10.84154626 27.19250126 -11.69921875 28.8515625 C-13.79494932 32.90340476 -15.89602571 36.95243271 -18 41 C-18.66 41 -19.32 41 -20 41 C-18.7874262 37.27566618 -17.49140021 33.62197194 -16 30 C-15.34 30 -14.68 30 -14 30 C-13.896875 29.47535156 -13.79375 28.95070313 -13.6875 28.41015625 C-12.7843291 25.24392645 -11.40795018 22.41247165 -10 19.4375 C-7.80780755 14.79576177 -7.80780755 14.79576177 -6 10 C-5.34 10 -4.68 10 -4 10 C-3.896875 9.46375 -3.79375 8.9275 -3.6875 8.375 C-2.81907303 5.37497956 -1.44379704 2.7620465 0 0 Z " fill="#1C3C55" transform="translate(867,1019)"/>
<path d="M0 0 C0 9.24 0 18.48 0 28 C-1.65 28.33 -3.3 28.66 -5 29 C-4.01 28.67 -3.02 28.34 -2 28 C-2 20.08 -2 12.16 -2 4 C-5.31544299 4 -7.98001389 4.67226165 -11.1875 5.5 C-12.27417969 5.7784375 -13.36085938 6.056875 -14.48046875 6.34375 C-15.31191406 6.5603125 -16.14335938 6.776875 -17 7 C-17.33 6.34 -17.66 5.68 -18 5 C-17.09636719 4.72285156 -16.19273438 4.44570312 -15.26171875 4.16015625 C-14.08222656 3.79792969 -12.90273437 3.43570312 -11.6875 3.0625 C-9.92986328 2.52302734 -9.92986328 2.52302734 -8.13671875 1.97265625 C-1.7751004 0 -1.7751004 0 0 0 Z " fill="#B8BDC1" transform="translate(1225,1523)"/>
<path d="M0 0 C6.26536124 1.23069596 12.26189699 3.00186652 18.32861328 4.96484375 C24.98020521 7.07557856 31.72736351 8.72864807 38.5246582 10.30004883 C39.33894287 10.4936499 40.15322754 10.68725098 40.9921875 10.88671875 C41.71776855 11.05389404 42.44334961 11.22106934 43.19091797 11.39331055 C45 12 45 12 47 14 C40.35862502 13.52561607 34.17905831 12.14986035 27.76171875 10.45996094 C23.85775163 9.43612642 19.99215138 8.59602882 16 8 C16 7.34 16 6.68 16 6 C14.2365625 5.8453125 14.2365625 5.8453125 12.4375 5.6875 C8.15280426 5.15381904 4.84450174 3.96148048 1 2 C0.67 1.34 0.34 0.68 0 0 Z " fill="#B6C3CF" transform="translate(903,1521)"/>
<path d="M0 0 C0.99 0 1.98 0 3 0 C3 0.66 3 1.32 3 2 C1.34285844 3.23830358 -0.38028161 4.38848228 -2.125 5.5 C-7.55924886 9.02839855 -12.85093658 12.70334857 -18.10205078 16.49804688 C-21.68546647 19.08170738 -25.31144293 21.57067843 -29 24 C-28.01437243 20.68470727 -27.34552581 19.25050621 -24.5 17.1875 C-22 16 -22 16 -20 16 C-20 15.34 -20 14.68 -20 14 C-17.63631237 12.23987034 -15.2779877 10.60543385 -12.8125 9 C-11.80219727 8.32324219 -11.80219727 8.32324219 -10.77148438 7.6328125 C-7.28364322 5.33253873 -3.98157076 3.36069214 0 2 C0 1.34 0 0.68 0 0 Z " fill="#C5D2DB" transform="translate(785,615)"/>
<path d="M0 0 C-3.49461827 2.32974551 -7.17529955 4.09511274 -10.94921875 5.9140625 C-12.10814384 6.4758168 -12.10814384 6.4758168 -13.29048157 7.04891968 C-15.75515974 8.24301368 -18.22130506 9.43404226 -20.6875 10.625 C-22.36012367 11.43469419 -24.03265089 12.24458765 -25.70507812 13.0546875 C-29.80227038 15.03877123 -33.90078099 17.02010725 -38 19 C-38.33 18.34 -38.66 17.68 -39 17 C-36.00074658 15.41524955 -33.00045992 13.83246479 -30 12.25 C-29.16082031 11.8065625 -28.32164062 11.363125 -27.45703125 10.90625 C-20.76358106 7.37791967 -14.0454195 3.88786244 -7.1875 0.6875 C-6.45917969 0.34074219 -5.73085938 -0.00601563 -4.98046875 -0.36328125 C-3 -1 -3 -1 0 0 Z " fill="#DCE7F1" transform="translate(867,573)"/>
<path d="M0 0 C0.99 0.33 1.98 0.66 3 1 C-8.39670874 11.41206662 -8.39670874 11.41206662 -14.1484375 16.39453125 C-15.43240834 17.50784774 -16.70791712 18.6309696 -17.9765625 19.76171875 C-18.60304688 20.31472656 -19.22953125 20.86773438 -19.875 21.4375 C-20.42929687 21.93121094 -20.98359375 22.42492187 -21.5546875 22.93359375 C-23 24 -23 24 -25 24 C-25 23.34 -25 22.68 -25 22 C-24.34 22 -23.68 22 -23 22 C-22.7525 21.360625 -22.505 20.72125 -22.25 20.0625 C-21 18 -21 18 -18.875 17.25 C-17.946875 17.12625 -17.946875 17.12625 -17 17 C-17 16.34 -17 15.68 -17 15 C-16.34 15 -15.68 15 -15 15 C-14.938125 14.401875 -14.87625 13.80375 -14.8125 13.1875 C-13.66037093 10.08561405 -11.86474503 9.59152502 -9 8 C-7.92203721 7.1228342 -6.85966941 6.22620664 -5.8125 5.3125 C-3 3 -3 3 -1 3 C-0.67 2.01 -0.34 1.02 0 0 Z " fill="#BAC7D1" transform="translate(741,648)"/>
<path d="M0 0 C0.66 0 1.32 0 2 0 C0.68081552 4.26925946 -0.96073388 8.10178796 -3.0390625 12.0546875 C-3.61914062 13.16328125 -4.19921875 14.271875 -4.796875 15.4140625 C-5.40015625 16.55617188 -6.0034375 17.69828125 -6.625 18.875 C-7.54152344 20.62296875 -7.54152344 20.62296875 -8.4765625 22.40625 C-9.98040502 25.27294981 -11.48833018 28.13742221 -13 31 C-13.84766648 28.60178198 -14.10686483 27.34048452 -13.33496094 24.88110352 C-12.97176758 24.13787842 -12.60857422 23.39465332 -12.234375 22.62890625 C-11.83863281 21.80712891 -11.44289063 20.98535156 -11.03515625 20.13867188 C-10.39900391 18.8634668 -10.39900391 18.8634668 -9.75 17.5625 C-9.34136719 16.71623047 -8.93273437 15.86996094 -8.51171875 14.99804688 C-4.20857719 6.16346204 -4.20857719 6.16346204 -2 3 C-1.34 3 -0.68 3 0 3 C0 2.01 0 1.02 0 0 Z " fill="#1F4059" transform="translate(939,877)"/>
<path d="M0 0 C0.99 0 1.98 0 3 0 C3 0.66 3 1.32 3 2 C1.41113281 3.37280273 1.41113281 3.37280273 -0.796875 4.93359375 C-1.5909375 5.50013672 -2.385 6.06667969 -3.203125 6.65039062 C-4.04359375 7.24013672 -4.8840625 7.82988281 -5.75 8.4375 C-7.39074987 9.60268877 -9.03137889 10.76804773 -10.671875 11.93359375 C-11.77160645 12.7078772 -11.77160645 12.7078772 -12.89355469 13.49780273 C-14.33677775 14.52702752 -15.7535207 15.59412209 -17.14550781 16.69165039 C-19 18 -19 18 -21 18 C-20.375 16.125 -20.375 16.125 -19 14 C-17 13.33333333 -15 12.66666667 -13 12 C-12.71253906 11.39542969 -12.42507813 10.79085938 -12.12890625 10.16796875 C-10.61217654 7.25521791 -8.65675755 6.11620896 -5.9375 4.3125 C-2.81956088 2.34276831 -2.81956088 2.34276831 0 0 Z " fill="#213F56" transform="translate(1375,1442)"/>
<path d="M0 0 C0.66 0.33 1.32 0.66 2 1 C0.58077881 4.6893862 -1.0452513 8.20704248 -2.8203125 11.73828125 C-3.35527344 12.80498047 -3.89023437 13.87167969 -4.44140625 14.97070312 C-4.99699219 16.07349609 -5.55257812 17.17628906 -6.125 18.3125 C-6.68832031 19.43462891 -7.25164063 20.55675781 -7.83203125 21.71289062 C-9.21955157 24.47617262 -10.60893378 27.23850182 -12 30 C-12.33 30 -12.66 30 -13 30 C-12.67 27.36 -12.34 24.72 -12 22 C-11.34 22 -10.68 22 -10 22 C-9.75507812 21.18273438 -9.51015625 20.36546875 -9.2578125 19.5234375 C-7.77452388 15.36838676 -5.88199051 11.54678711 -3.875 7.625 C-3.50246094 6.88894531 -3.12992188 6.15289063 -2.74609375 5.39453125 C-1.8343878 3.59449642 -0.91770068 1.79698598 0 0 Z " fill="#214058" transform="translate(733,1282)"/>
<path d="M0 0 C0 0.33 0 0.66 0 1 C-11.2812471 3.15578562 -22.54650524 3.60040282 -34 4 C-30.57041001 1.71360667 -27.7328272 1.33550258 -23.75 0.875 C-23.05068359 0.79008301 -22.35136719 0.70516602 -21.63085938 0.61767578 C-14.4106014 -0.1869135 -7.25706655 -0.18768276 0 0 Z " fill="#23415A" transform="translate(1138,1543)"/>
<path d="M0 0 C0.33 0 0.66 0 1 0 C1.21350161 8.70612134 1.04529898 17.27062363 0.125 25.9375 C0.04652832 26.72431152 -0.03194336 27.51112305 -0.11279297 28.32177734 C-0.33229905 30.22486555 -0.65656197 32.11533081 -1 34 C-1.99 34.495 -1.99 34.495 -3 35 C-3.60377168 23.14818557 -1.77481934 11.68580075 0 0 Z " fill="#2E4C63" transform="translate(564,964)"/>
<path d="M0 0 C0.66 0.33 1.32 0.66 2 1 C1.29875 1.50789062 0.5975 2.01578125 -0.125 2.5390625 C-5.1600985 6.19224538 -10.1739226 9.86773088 -15.140625 13.61328125 C-18.05988229 15.79045843 -21.02833746 17.89507236 -24 20 C-24.66 19.34 -25.32 18.68 -26 18 C-17.52731652 11.69392789 -8.81839163 5.80752377 0 0 Z " fill="#9FACB9" transform="translate(1136,541)"/>
<path d="M0 0 C-4.60205849 2.52394145 -8.93584436 3.90593062 -14 5.0625 C-17.84770448 5.96294964 -21.60502293 6.85141783 -25.3125 8.24609375 C-26.199375 8.49488281 -27.08625 8.74367188 -28 9 C-28.99 8.34 -29.98 7.68 -31 7 C-2.86666667 -1.43333333 -2.86666667 -1.43333333 0 0 Z " fill="#8F9CA7" transform="translate(1207,1530)"/>
<path d="M0 0 C0 0.66 0 1.32 0 2 C-19.72081218 9 -19.72081218 9 -29 9 C-29 8.34 -29 7.68 -29 7 C-27.88882812 6.74605469 -26.77765625 6.49210937 -25.6328125 6.23046875 C-18.27835292 4.53385817 -10.9746658 2.83402602 -3.78515625 0.515625 C-2 0 -2 0 0 0 Z " fill="#1C3B55" transform="translate(1210,1526)"/>
<path d="M0 0 C0.66 0.99 1.32 1.98 2 3 C-0.50209919 6.84250947 -3.11219728 10.43271429 -6 14 C-8.01513181 16.65540768 -10.00949921 19.32609394 -12 22 C-12.66 21.67 -13.32 21.34 -14 21 C-12.41666667 18.625 -10.83333333 16.25 -9.25 13.875 C-8.8065625 13.20984375 -8.363125 12.5446875 -7.90625 11.859375 C-7.02669271 10.54003906 -6.14713542 9.22070312 -5.26757812 7.90136719 C-4.64012695 6.96019043 -4.64012695 6.96019043 -4 6 C-2.66666667 4 -1.33333333 2 0 0 Z " fill="#D8E4ED" transform="translate(1007,663)"/>
<path d="M0 0 C0.91289795 0.08233887 1.8257959 0.16467773 2.76635742 0.24951172 C9.29945183 0.92880122 9.29945183 0.92880122 12.6875 3.1875 C3.91586675 3.35220403 -4.75482179 2.83367393 -13.5 2.1875 C-14.84697962 2.09078878 -16.19398477 1.99443243 -17.54101562 1.8984375 C-20.79844415 1.66493008 -24.0555725 1.42787781 -27.3125 1.1875 C-27.3125 0.8575 -27.3125 0.5275 -27.3125 0.1875 C-18.07522851 -0.77934313 -9.24872269 -0.86864247 0 0 Z " fill="#A1AFBB" transform="translate(1111.3125,531.8125)"/>
<path d="M0 0 C0.99 0.33 1.98 0.66 3 1 C0.62788344 2.60857268 -1.74750057 4.21191752 -4.125 5.8125 C-4.79015625 6.26431641 -5.4553125 6.71613281 -6.140625 7.18164062 C-9.98018558 9.76016905 -13.8001225 12.03089855 -18 14 C-18 13.01 -18 12.02 -18 11 C-15.95662289 9.51608338 -13.99191051 8.25075123 -11.8125 7 C-10.9452832 6.48566406 -10.9452832 6.48566406 -10.06054688 5.9609375 C-8.37884308 4.96521684 -6.68951243 3.98241286 -5 3 C-4.09636719 2.401875 -3.19273438 1.80375 -2.26171875 1.1875 C-1.51535156 0.795625 -0.76898437 0.40375 0 0 Z " fill="#1F3C54" transform="translate(1351,1460)"/>
<path d="M0 0 C0.66 0 1.32 0 2 0 C1.40541585 3.65569682 0.39426489 6.56821446 -1.28515625 9.86328125 C-1.73310547 10.74951172 -2.18105469 11.63574219 -2.64257812 12.54882812 C-3.11115234 13.46083984 -3.57972656 14.37285156 -4.0625 15.3125 C-4.53494141 16.24384766 -5.00738281 17.17519531 -5.49414062 18.13476562 C-6.65737644 20.42598769 -7.82613132 22.7142124 -9 25 C-9.33 25 -9.66 25 -10 25 C-10.75688037 19.64853599 -8.08936914 15.86891598 -5.5625 11.375 C-4.72860456 9.86300581 -3.89649733 8.35002364 -3.06640625 6.8359375 C-2.69459229 6.17126465 -2.32277832 5.5065918 -1.93969727 4.82177734 C-0.86642751 2.85570602 -0.86642751 2.85570602 0 0 Z " fill="#1C3D55" transform="translate(917,918)"/>
<path d="M0 0 C0.66 0.33 1.32 0.66 2 1 C-10.48519362 13.85421412 -10.48519362 13.85421412 -17 18 C-17.66 17.67 -18.32 17.34 -19 17 C-16.96004487 15.10229694 -14.91810165 13.20681055 -12.875 11.3125 C-12.02035156 10.51682617 -12.02035156 10.51682617 -11.1484375 9.70507812 C-7.52351755 6.34790794 -3.82221468 3.13096309 0 0 Z " fill="#B5C2CD" transform="translate(1089,575)"/>
<path d="M0 0 C0.66 0.33 1.32 0.66 2 1 C-0.05751225 2.94303866 -2.12065496 4.87943134 -4.1875 6.8125 C-5.0547168 7.63331055 -5.0547168 7.63331055 -5.93945312 8.47070312 C-9.11428968 11.43029653 -12.14557449 13.93124055 -16 16 C-16 15.01 -16 14.02 -16 13 C-14.1231278 11.20575739 -12.27845317 9.6038932 -10.25 8 C-9.71117187 7.56171875 -9.17234375 7.1234375 -8.6171875 6.671875 C-5.79190886 4.38408839 -2.9251656 2.15837462 0 0 Z " fill="#B0BCC6" transform="translate(1108,560)"/>
<path d="M0 0 C10.55808656 -0.18451025 10.55808656 -0.18451025 15 1 C10.39486061 4.99112081 5.24516756 7.94456259 0 11 C-0.33 10.34 -0.66 9.68 -1 9 C0.32 8.67 1.64 8.34 3 8 C3 7.34 3 6.68 3 6 C3.99 6 4.98 6 6 6 C6 5.34 6 4.68 6 4 C6.66 3.67 7.32 3.34 8 3 C8 2.34 8 1.68 8 1 C5.36 1 2.72 1 0 1 C0 0.67 0 0.34 0 0 Z " fill="#203951" transform="translate(1126,537)"/>
<path d="M0 0 C0.66 0 1.32 0 2 0 C2.09951212 3.48292433 1.99721123 6.64574405 1 10 C-2 12 -2 12 -5 12 C-3.68938409 7.76570244 -2.05643741 3.92592596 0 0 Z " fill="#2A455A" transform="translate(927,1051)"/>
<path d="M0 0 C0.66 0 1.32 0 2 0 C0.55676531 4.73789165 -1.37226733 8.98858151 -3.625 13.375 C-3.94984375 14.01566406 -4.2746875 14.65632813 -4.609375 15.31640625 C-5.40257407 16.87947501 -6.20077031 18.44000622 -7 20 C-7.33 20 -7.66 20 -8 20 C-8 18.35 -8 16.7 -8 15 C-7.34 15 -6.68 15 -6 15 C-5.9071875 13.7934375 -5.9071875 13.7934375 -5.8125 12.5625 C-4.73463007 7.8364549 -2.48408581 4.12486573 0 0 Z " fill="#254359" transform="translate(718,1312)"/>
<path d="M0 0 C0.66 0 1.32 0 2 0 C0.55676531 4.73789165 -1.37226733 8.98858151 -3.625 13.375 C-3.94984375 14.01566406 -4.2746875 14.65632813 -4.609375 15.31640625 C-5.40257407 16.87947501 -6.20077031 18.44000622 -7 20 C-7.66 19.34 -8.32 18.68 -9 18 C-7.68 15.03 -6.36 12.06 -5 9 C-4.34 9 -3.68 9 -3 9 C-2.814375 7.88625 -2.814375 7.88625 -2.625 6.75 C-2.04513299 4.19858515 -1.26291261 2.2732427 0 0 Z " fill="#203F58" transform="translate(834,1084)"/>
<path d="M0 0 C2.59250371 1.29625185 2.70112231 2.29548563 3.7265625 4.96484375 C4.0359375 5.76470703 4.3453125 6.56457031 4.6640625 7.38867188 C4.98117187 8.22978516 5.29828125 9.07089844 5.625 9.9375 C5.94984375 10.77474609 6.2746875 11.61199219 6.609375 12.47460938 C9 18.71735491 9 18.71735491 9 21 C8.34 21 7.68 21 7 21 C6.32942113 19.2097939 5.6636531 17.41778511 5 15.625 C4.62875 14.62726563 4.2575 13.62953125 3.875 12.6015625 C3 10 3 10 3 8 C2.34 8 1.68 8 1 8 C0.67 5.36 0.34 2.72 0 0 Z " fill="#A5B4BE" transform="translate(590,1219)"/>
<path d="M0 0 C0.66 0.33 1.32 0.66 2 1 C-1.3 7.6 -4.6 14.2 -8 21 C-9.36781316 16.89656051 -8.03307782 15.27629158 -6.2578125 11.49609375 C-4.29202702 7.59504742 -2.18243531 3.78348416 0 0 Z " fill="#224159" transform="translate(845,1063)"/>
<path d="M0 0 C-0.71285156 0.44730469 -1.42570312 0.89460937 -2.16015625 1.35546875 C-7.55668533 4.76189155 -12.85361125 8.22598158 -18 12 C-18 11.01 -18 10.02 -18 9 C-17.195625 8.731875 -16.39125 8.46375 -15.5625 8.1875 C-14.716875 7.795625 -13.87125 7.40375 -13 7 C-12.67 6.01 -12.34 5.02 -12 4 C-9.6875 2.4375 -9.6875 2.4375 -7 1 C-5.948125 0.38125 -5.948125 0.38125 -4.875 -0.25 C-3 -1 -3 -1 0 0 Z " fill="#26425A" transform="translate(1123,551)"/>
<path d="M0 0 C1.32 0.33 2.64 0.66 4 1 C4 1.66 4 2.32 4 3 C4.66 3 5.32 3 6 3 C6 3.66 6 4.32 6 5 C6.85851562 5.39832031 6.85851562 5.39832031 7.734375 5.8046875 C10.1076012 7.05676891 12.12213286 8.4936352 14.25 10.125 C14.95640625 10.66382813 15.6628125 11.20265625 16.390625 11.7578125 C16.92171875 12.16773438 17.4528125 12.57765625 18 13 C17.67 13.66 17.34 14.32 17 15 C14.15892474 12.8851946 11.32854536 10.75652703 8.5 8.625 C7.68917969 8.02171875 6.87835937 7.4184375 6.04296875 6.796875 C5.27597656 6.21679688 4.50898437 5.63671875 3.71875 5.0390625 C3.00654297 4.50490723 2.29433594 3.97075195 1.56054688 3.42041016 C1.04556641 2.9516748 0.53058594 2.48293945 0 2 C0 1.34 0 0.68 0 0 Z " fill="#28465D" transform="translate(747,1432)"/>
<path d="M0 0 C0.66 0.33 1.32 0.66 2 1 C-0.64 6.28 -3.28 11.56 -6 17 C-6.33 17 -6.66 17 -7 17 C-7.30017023 12.83513802 -6.45324946 10.34984273 -4.5 6.6875 C-4.0359375 5.80449219 -3.571875 4.92148437 -3.09375 4.01171875 C-2.7328125 3.34785156 -2.371875 2.68398438 -2 2 C-1.34 2 -0.68 2 0 2 C0 1.34 0 0.68 0 0 Z " fill="#24445E" transform="translate(973,715)"/>
<path d="M0 0 C0.66 0 1.32 0 2 0 C0.35433477 5.68502535 -2.29032784 10.76681636 -5 16 C-5.33 16 -5.66 16 -6 16 C-6 14.02 -6 12.04 -6 10 C-5.34 10 -4.68 10 -4 10 C-3.896875 9.46375 -3.79375 8.9275 -3.6875 8.375 C-2.81907303 5.37497956 -1.44379704 2.7620465 0 0 Z " fill="#28465E" transform="translate(867,1019)"/>
<path d="M0 0 C0.66 0.99 1.32 1.98 2 3 C-0.31 7.62 -2.62 12.24 -5 17 C-5.66 17 -6.32 17 -7 17 C-5.24009216 11.08030998 -2.60305395 5.58365008 0 0 Z " fill="#C5D2DD" transform="translate(963,738)"/>
<path d="M0 0 C0 0.66 0 1.32 0 2 C-6.43013467 3.73955334 -12.34949576 4.24991456 -19 4 C-16.05075061 2.37893452 -13.36193006 1.51556732 -10.0625 0.875 C-8.81146484 0.62363281 -8.81146484 0.62363281 -7.53515625 0.3671875 C-4.98541981 -0.00211177 -2.57240933 -0.06442528 0 0 Z " fill="#355168" transform="translate(975,541)"/>
<path d="M0 0 C0.66 0.33 1.32 0.66 2 1 C0.50829734 5.9723422 -1.60457417 10.41845739 -4 15 C-4.66 14.67 -5.32 14.34 -6 14 C-6 13.34 -6 12.68 -6 12 C-5.34 12 -4.68 12 -4 12 C-3.896875 11.13375 -3.79375 10.2675 -3.6875 9.375 C-2.96601586 5.83316877 -1.72876739 3.15687958 0 0 Z " fill="#2B4A60" transform="translate(899,955)"/>
<path d="M0 0 C2.39254576 0.22560676 4.78928123 0.40848595 7.1875 0.5625 C9.09595703 0.68818359 9.09595703 0.68818359 11.04296875 0.81640625 C12.01878906 0.87699219 12.99460937 0.93757813 14 1 C14 1.33 14 1.66 14 2 C4.60394198 2.10731538 -4.64087671 1.99263429 -14 1 C-14 0.67 -14 0.34 -14 0 C-12.2300132 -0.19532961 -10.45895721 -0.38098882 -8.6875 -0.5625 C-7.70136719 -0.66691406 -6.71523437 -0.77132813 -5.69921875 -0.87890625 C-3 -1 -3 -1 0 0 Z " fill="#3E596D" transform="translate(1035,1546)"/>
<path d="M0 0 C0.66 0.33 1.32 0.66 2 1 C-2.29 5.62 -6.58 10.24 -11 15 C-11.66 14.67 -12.32 14.34 -13 14 C-8.71 9.38 -4.42 4.76 0 0 Z " fill="#D2E0E6" transform="translate(715,1226)"/>
<path d="M0 0 C0.66 0 1.32 0 2 0 C0.35433477 5.68502535 -2.29032784 10.76681636 -5 16 C-5.33 16 -5.66 16 -6 16 C-6 14.35 -6 12.7 -6 11 C-5.34 11 -4.68 11 -4 11 C-3.896875 10.29875 -3.79375 9.5975 -3.6875 8.875 C-2.90640997 5.60862353 -1.57941257 2.9528148 0 0 Z " fill="#29465D" transform="translate(791,1170)"/>
<path d="M0 0 C0.66 0.66 1.32 1.32 2 2 C-1.465 9.425 -1.465 9.425 -5 17 C-5.33 17 -5.66 17 -6 17 C-6.33224865 12.23776938 -5.65002586 9.92596423 -3 6 C-1.9849911 4.00757511 -0.98126556 2.00925805 0 0 Z " fill="#214059" transform="translate(964,732)"/>
<path d="M0 0 C0.78375 0.04125 1.5675 0.0825 2.375 0.125 C-0.14132049 2.98484547 -2.96385553 4.53968822 -6.3125 6.3125 C-7.30636719 6.84230469 -8.30023437 7.37210938 -9.32421875 7.91796875 C-10.08347656 8.31628906 -10.84273437 8.71460938 -11.625 9.125 C-11.625 8.135 -11.625 7.145 -11.625 6.125 C-9.8671875 5.1484375 -8.109375 4.171875 -6.3515625 3.1953125 C-1.29668675 0.06174699 -1.29668675 0.06174699 0 0 Z " fill="#25435B" transform="translate(742.625,1204.875)"/>
<path d="M0 0 C0.66 0 1.32 0 2 0 C0.56691865 3.95906817 -1.33141949 7.28718181 -3.625 10.8125 C-4.57246094 12.27623047 -4.57246094 12.27623047 -5.5390625 13.76953125 C-6.02117188 14.50558594 -6.50328125 15.24164062 -7 16 C-7.33 14.68 -7.66 13.36 -8 12 C-7.34 12 -6.68 12 -6 12 C-5.88527344 11.42765625 -5.77054688 10.8553125 -5.65234375 10.265625 C-4.93817644 7.78528344 -3.92692128 5.93631303 -2.5625 3.75 C-2.13066406 3.04359375 -1.69882812 2.3371875 -1.25390625 1.609375 C-0.84011719 1.07828125 -0.42632813 0.5471875 0 0 Z " fill="#27455D" transform="translate(998,673)"/>
<path d="M0 0 C-1.92714865 4.90546929 -5.74414191 7.16276127 -10 10 C-10.99 9.67 -11.98 9.34 -13 9 C-11.21326795 7.4941255 -9.42046492 5.9954515 -7.625 4.5 C-6.62726562 3.6646875 -5.62953125 2.829375 -4.6015625 1.96875 C-2 0 -2 0 0 0 Z " fill="#23425B" transform="translate(752,643)"/>
<path d="M0 0 C-2.43313372 1.03251062 -4.87056892 2.05119521 -7.3125 3.0625 C-8.34793945 3.50432617 -8.34793945 3.50432617 -9.40429688 3.95507812 C-14.66015625 6.11328125 -14.66015625 6.11328125 -18 5 C-15.53031367 2.53031367 -13.42511413 1.93002031 -10.125 0.8125 C-9.07570313 0.44769531 -8.02640625 0.08289062 -6.9453125 -0.29296875 C-4.06405115 -0.98462433 -2.72213388 -1.03230681 0 0 Z " fill="#1D3D55" transform="translate(773,1194)"/>
<path d="M0 0 C2.49560036 2.24460607 3.8705484 4.38520597 5.25 7.4375 C5.60578125 8.19933594 5.9615625 8.96117187 6.328125 9.74609375 C7 12 7 12 6 16 C3.69 11.05 1.38 6.1 -1 1 C-0.67 0.67 -0.34 0.34 0 0 Z " fill="#26445A" transform="translate(1071,1108)"/>
<path d="M0 0 C1.2456406 3.7369218 0.6963316 4.5265591 -1 8 C-3 11.3125 -3 11.3125 -5 14 C-5.66 14 -6.32 14 -7 14 C-5.23570801 9.02790438 -2.6060834 4.56561939 0 0 Z " fill="#21415B" transform="translate(626,788)"/>
<path d="M0 0 C0.66 0 1.32 0 2 0 C3.00484204 1.95585325 4.00373805 3.91476237 5 5.875 C5.556875 6.96554687 6.11375 8.05609375 6.6875 9.1796875 C8 12 8 12 8 14 C7.34 14 6.68 14 6 14 C4.99515796 12.04414675 3.99626195 10.08523763 3 8.125 C2.1646875 6.48917969 2.1646875 6.48917969 1.3125 4.8203125 C0 2 0 2 0 0 Z " fill="#203E54" transform="translate(1029,1024)"/>
<path d="M0 0 C1 3 1 3 0.00390625 5.48046875 C-0.47175781 6.37378906 -0.94742188 7.26710938 -1.4375 8.1875 C-1.91058594 9.08855469 -2.38367188 9.98960938 -2.87109375 10.91796875 C-3.24363281 11.60503906 -3.61617187 12.29210938 -4 13 C-4.66 13 -5.32 13 -6 13 C-2.86206897 2.86206897 -2.86206897 2.86206897 0 0 Z " fill="#1E3E56" transform="translate(702,1344)"/>
<path d="M0 0 C0.33 0 0.66 0 1 0 C1.28883414 4.06534057 0.57875609 6.33058355 -1.5 9.8125 C-1.9640625 10.60269531 -2.428125 11.39289063 -2.90625 12.20703125 C-3.44765625 13.09455078 -3.44765625 13.09455078 -4 14 C-4.66 14 -5.32 14 -6 14 C-4.50829734 9.0276578 -2.39542583 4.58154261 0 0 Z " fill="#345166" transform="translate(867,1170)"/>
<path d="M0 0 C0.66 0 1.32 0 2 0 C2.83819158 1.62249941 3.6704116 3.24808497 4.5 4.875 C4.9640625 5.77992188 5.428125 6.68484375 5.90625 7.6171875 C7 10 7 10 7 12 C6.34 12 5.68 12 5 12 C4.16180842 10.37750059 3.3295884 8.75191503 2.5 7.125 C2.0359375 6.22007812 1.571875 5.31515625 1.09375 4.3828125 C0 2 0 2 0 0 Z " fill="#19384E" transform="translate(956,875)"/>
<path d="M0 0 C0.99 0 1.98 0 3 0 C2.49477778 4.37859255 -0.17827222 6.81651224 -3 10 C-3.33 9.34 -3.66 8.68 -4 8 C-3.22265625 6.0546875 -3.22265625 6.0546875 -2.0625 3.875 C-1.49208984 2.78832031 -1.49208984 2.78832031 -0.91015625 1.6796875 C-0.60980469 1.12539063 -0.30945313 0.57109375 0 0 Z " fill="#1C3D59" transform="translate(616,806)"/>
<path d="M0 0 C0.99 0.33 1.98 0.66 3 1 C0.36 2.98 -2.28 4.96 -5 7 C-5.66 6.34 -6.32 5.68 -7 5 C-5.90554162 4.13342884 -4.79902219 3.28207276 -3.6875 2.4375 C-3.07261719 1.96183594 -2.45773437 1.48617187 -1.82421875 0.99609375 C-1.22222656 0.66738281 -0.62023438 0.33867188 0 0 Z " fill="#AEB7C1" transform="translate(1117,554)"/>
<path d="M0 0 C0.66 0 1.32 0 2 0 C0.68938409 4.23429756 -0.94356259 8.07407404 -3 12 C-3.66 11.01 -4.32 10.02 -5 9 C-3.35 6.03 -1.7 3.06 0 0 Z " fill="#D8E7ED" transform="translate(800,1298)"/>
<path d="M0 0 C0.66 0 1.32 0 2 0 C4.44045073 3.45730521 5.78065514 6.96678237 7 11 C6.01 11.495 6.01 11.495 5 12 C4.16180842 10.37750059 3.3295884 8.75191503 2.5 7.125 C2.0359375 6.22007813 1.571875 5.31515625 1.09375 4.3828125 C0 2 0 2 0 0 Z " fill="#2C495F" transform="translate(1120,1211)"/>
<path d="M0 0 C0.66 0 1.32 0 2 0 C3.32 3.3 4.64 6.6 6 10 C3 9 3 9 1.3125 6.6875 C0 4 0 4 0 0 Z " fill="#345165" transform="translate(1103,1122)"/>
<path d="M0 0 C1.28222189 3.03070628 0.98589446 4.03596914 -0.25 7.1875 C-2 10 -2 10 -5 11 C-3.55049545 7.2089881 -1.84827434 3.6125362 0 0 Z " fill="#D5E2EB" transform="translate(978,709)"/>
<path d="M0 0 C0.33 0 0.66 0 1 0 C1 4.29 1 8.58 1 13 C-1.475 12.01 -1.475 12.01 -4 11 C-3.525625 10.67 -3.05125 10.34 -2.5625 10 C-0.14208385 6.90186733 -0.31801083 3.87973208 0 0 Z " fill="#92A2AE" transform="translate(1197,1379)"/>
<path d="M0 0 C0 0.99 0 1.98 0 3 C-2.75 5.25 -2.75 5.25 -6 7 C-7.32 6.67 -8.64 6.34 -10 6 C-6.7 4.02 -3.4 2.04 0 0 Z " fill="#25455D" transform="translate(805,605)"/>
<path d="M0 0 C2.31 1.65 4.62 3.3 7 5 C6.01 5.33 5.02 5.66 4 6 C1.3125 4.5625 1.3125 4.5625 -1 3 C-1.33 3.99 -1.66 4.98 -2 6 C-2.33 5.34 -2.66 4.68 -3 4 C-2.01 2.68 -1.02 1.36 0 0 Z " fill="#DDE6ED" transform="translate(738,1426)"/>
<path d="M0 0 C1 3 1 3 0.22265625 5.04296875 C-0.16019531 5.75066406 -0.54304687 6.45835938 -0.9375 7.1875 C-1.31777344 7.90292969 -1.69804688 8.61835937 -2.08984375 9.35546875 C-2.54037109 10.16951172 -2.54037109 10.16951172 -3 11 C-3.33 11 -3.66 11 -4 11 C-4.56638908 6.18569279 -2.82561627 3.79692186 0 0 Z " fill="#203F57" transform="translate(695,1358)"/>
<path d="M0 0 C0.66 0.33 1.32 0.66 2 1 C0.84414715 4.91211733 -0.35534962 7.8745041 -3 11 C-2.53199289 6.94393835 -2.12046792 3.53411321 0 0 Z " fill="#2A475C" transform="translate(743,1262)"/>
<path d="M0 0 C3.14952839 0.6998952 6.0652503 1.65160149 9 3 C9.33 3.66 9.66 4.32 10 5 C6.37 4.01 2.74 3.02 -1 2 C-0.67 1.34 -0.34 0.68 0 0 Z " fill="#25435B" transform="translate(910,1521)"/>
<path d="M0 0 C0.66 0.33 1.32 0.66 2 1 C0.74057614 2.19959375 -0.53295286 3.38439443 -1.8125 4.5625 C-2.87404297 5.55443359 -2.87404297 5.55443359 -3.95703125 6.56640625 C-4.63121094 7.03949219 -5.30539062 7.51257812 -6 8 C-6.99 7.67 -7.98 7.34 -9 7 C-6.03 4.69 -3.06 2.38 0 0 Z " fill="#8D9AA3" transform="translate(1381,1440)"/>
<path d="M0 0 C0.66 0.66 1.32 1.32 2 2 C0.68 4.64 -0.64 7.28 -2 10 C-2.33 10 -2.66 10 -3 10 C-2.25 3.375 -2.25 3.375 0 0 Z " fill="#24435C" transform="translate(800,1152)"/>
<path d="M0 0 C2.91227269 3.28804981 4.49701212 5.59885603 5 10 C4.34 10 3.68 10 3 10 C1.68 7.03 0.36 4.06 -1 1 C-0.67 0.67 -0.34 0.34 0 0 Z " fill="#1B3C52" transform="translate(996,954)"/>
<path d="M0 0 C-3.23452341 1.74166645 -6.43496376 3.08977798 -10 4 C-10.99 3.34 -11.98 2.68 -13 2 C-8.46298506 0.54815522 -4.81938524 -0.23509196 0 0 Z " fill="#9DA9B1" transform="translate(1189,1535)"/>
<path d="M0 0 C0.66 0 1.32 0 2 0 C0.84414715 3.91211733 -0.35534962 6.8745041 -3 10 C-3 8.35 -3 6.7 -3 5 C-2.34 5 -1.68 5 -1 5 C-0.67 3.35 -0.34 1.7 0 0 Z " fill="#2B475D" transform="translate(708,1332)"/>
<path d="M0 0 C0.99 0.33 1.98 0.66 3 1 C0.36 2.98 -2.28 4.96 -5 7 C-5 6.01 -5 5.02 -5 4 C-4.34 4 -3.68 4 -3 4 C-3 3.34 -3 2.68 -3 2 C-2.01 1.34 -1.02 0.68 0 0 Z " fill="#26445D" transform="translate(727,1214)"/>
<path d="M0 0 C0.66 1.32 1.32 2.64 2 4 C1.01 5.32 0.02 6.64 -1 8 C-1.99 7.67 -2.98 7.34 -4 7 C-3.34 6.67 -2.68 6.34 -2 6 C-1.27306096 4.02111039 -0.60183749 2.02045442 0 0 Z " fill="#22405A" transform="translate(783,1184)"/>
<path d="M0 0 C0.66 0 1.32 0 2 0 C0.84414715 3.91211733 -0.35534962 6.8745041 -3 10 C-2.67 7.69 -2.34 5.38 -2 3 C-1.34 3 -0.68 3 0 3 C0 2.01 0 1.02 0 0 Z " fill="#2E4D62" transform="translate(939,877)"/>
<path d="M0 0 C0.66 0.99 1.32 1.98 2 3 C0.35 4.98 -1.3 6.96 -3 9 C-3.66 8.67 -4.32 8.34 -5 8 C-3.35 5.36 -1.7 2.72 0 0 Z " fill="#25455E" transform="translate(649,751)"/>
<path d="M0 0 C0 0.66 0 1.32 0 2 C-1.28745036 2.38922918 -2.58019597 2.76098036 -3.875 3.125 C-4.59429688 3.33382812 -5.31359375 3.54265625 -6.0546875 3.7578125 C-6.69664062 3.83773437 -7.33859375 3.91765625 -8 4 C-8.66 3.34 -9.32 2.68 -10 2 C-3.375 0 -3.375 0 0 0 Z " fill="#345066" transform="translate(935,550)"/>
<path d="M0 0 C0 0.66 0 1.32 0 2 C-6.625 3.25 -6.625 3.25 -10 1 C-6.61981469 -0.04005702 -3.5219721 -0.08004482 0 0 Z " fill="#334E65" transform="translate(986,539)"/>
<path d="M0 0 C0.66 0.33 1.32 0.66 2 1 C2 2.32 2 3.64 2 5 C2.66 5 3.32 5 4 5 C4.33 6.32 4.66 7.64 5 9 C4.01 8.67 3.02 8.34 2 8 C0.3125 4.4375 0.3125 4.4375 -1 1 C-0.67 0.67 -0.34 0.34 0 0 Z " fill="#1A3B51" transform="translate(1059,1083)"/>
<path d="M0 0 C2 1 2 1 3.1875 3.3125 C4 6 4 6 3 10 C1.68 7.03 0.36 4.06 -1 1 C-0.67 0.67 -0.34 0.34 0 0 Z " fill="#264358" transform="translate(1048,1061)"/>
<path d="M0 0 C0.99 0.33 1.98 0.66 3 1 C1.35 2.65 -0.3 4.3 -2 6 C-2.99 5.67 -3.98 5.34 -5 5 C-3.35 3.35 -1.7 1.7 0 0 Z " fill="#2C4C64" transform="translate(697,692)"/>
<path d="M0 0 C2 2 2 2 2 5 C2.99 5.33 3.98 5.66 5 6 C4.34 6.66 3.68 7.32 3 8 C0.9375 6.25 0.9375 6.25 -1 4 C-0.75 1.75 -0.75 1.75 0 0 Z " fill="#314D63" transform="translate(739,1422)"/>
<path d="M0 0 C0.66 0.99 1.32 1.98 2 3 C0.515 5.475 0.515 5.475 -1 8 C-1.99 7.34 -2.98 6.68 -4 6 C-3.67 5.34 -3.34 4.68 -3 4 C-2.01 4 -1.02 4 0 4 C0 2.68 0 1.36 0 0 Z " fill="#254054" transform="translate(689,1368)"/>
<path d="M0 0 C1.33597652 0.80814651 2.668725 1.62163181 4 2.4375 C5.11375 3.11619141 5.11375 3.11619141 6.25 3.80859375 C6.8275 4.20175781 7.405 4.59492187 8 5 C8 5.33 8 5.66 8 6 C5.6875 6.25 5.6875 6.25 3 6 C1.02389614 3.95575462 0 2.8823175 0 0 Z " fill="#23415A" transform="translate(1103,1335)"/>
<path d="M0 0 C0.66 0.99 1.32 1.98 2 3 C0.35 5.31 -1.3 7.62 -3 10 C-3.33 9.34 -3.66 8.68 -4 8 C-3.22265625 6.0546875 -3.22265625 6.0546875 -2.0625 3.875 C-1.49208984 2.78832031 -1.49208984 2.78832031 -0.91015625 1.6796875 C-0.60980469 1.12539062 -0.30945313 0.57109375 0 0 Z " fill="#C5D6DD" transform="translate(853,1050)"/>
<path d="M0 0 C0.66 0.33 1.32 0.66 2 1 C0.25 6.75 0.25 6.75 -2 9 C-1.125 2.25 -1.125 2.25 0 0 Z " fill="#2E4D62" transform="translate(921,911)"/>
<path d="M0 0 C0 4.38968456 -2.12805101 5.76905739 -5 9 C-5.33 8.34 -5.66 7.68 -6 7 C-4.02 4.69 -2.04 2.38 0 0 Z " fill="#B1BEC9" transform="translate(667,725)"/>
<path d="M0 0 C0.66 0.66 1.32 1.32 2 2 C0.35 3.65 -1.3 5.3 -3 7 C-3.66 6.67 -4.32 6.34 -5 6 C-3.35 4.02 -1.7 2.04 0 0 Z " fill="#1F3F5A" transform="translate(677,715)"/>
</svg>
